<svg xmlns="http://www.w3.org/2000/svg" version="1.1" viewBox="0 0 50 50" width="50" height="50" preserveAspectRatio="xMinYMin meet">
    <path d="m25 46c-4.82 0-9.26-1.63-12.8-4.37l9.98-11.4 3.65 4.83h10.2l-7.62-10.1 14-11.8c2.31 3.37 3.66 7.44 3.66 11.8 0 11.6-9.42 21-21 21m-21-21c0-11.6 9.42-21 21-21 2.47 0 4.85 0.433 7.05 1.22l-8.96 12.7-2.24-2.96h-10.2l7.51 9.94-9.43 13.4c-2.97-3.62-4.75-8.25-4.75-13.3m21-25c-13.8 0-25 11.2-25 25 0 13.8 11.2 25 25 25 13.8 0 25-11.2 25-25 0-13.8-11.2-25-25-25" fill="#075">
    </path>
</svg>